
        <svg xmlns="http://www.w3.org/2000/svg" xmlns:xlink="http://www.w3.org/1999/xlink" version="1.1" width="3193.548387096774" 
        height="1018.3028898940331" viewBox="0 0 3193.548387096774 1018.3028898940331">
			<rect fill="#000000" width="3193.548387096774" height="1018.3028898940331"/>
			<g transform="scale(9.67741935483871) translate(10, 10)">
				<defs id="SvgjsDefs1787"></defs><g id="SvgjsG1788" featureKey="nameFeature-0" transform="matrix(3.032689073598109,0,0,3.032689073598109,-3.405557705837149,-36.24578774732208)" fill="#ffffff"><path d="M1.7914 12.861 l-0.66845 -0.82888 l10.508 0 l0 4.2246 l-7.246 0 l1.0963 0.82888 l0 6.8182 l4.3316 0 l0 4.2513 l-5.4278 0 l1.0963 0.80214 l0 6.8449 l6.1497 0 l0 4.2246 l-9.8396 0 l0 -4.2246 l0 -7.6471 l0 -4.2513 l0 -11.043 z M12.139038556149732 12.032 l4.2781 0 l2.4866 20.107 l2.4599 -20.107 l3.6898 0 l-3.4225 27.995 l-5.4813 0 l-3.3155 -27.166 l-0.026738 0 z M26.871613903743313 12.861 l-0.66845 -0.82888 l10.508 0 l0 4.2246 l-7.246 0 l1.0963 0.82888 l0 6.8182 l4.3316 0 l0 4.2513 l-5.4278 0 l1.0963 0.80214 l0 6.8449 l6.1497 0 l0 4.2246 l-9.8396 0 l0 -4.2246 l0 -7.6471 l0 -4.2513 l0 -11.043 z M37.56684652406417 12.004999999999999 l5.2406 0 l3.4225 15.267 l0 -15.241 l3.6631 0 l0 27.968 l-4.5722 0 l-3.3957 -15.187 l0 15.214 l-3.6898 0 l0 -27.193 z M54.81285187165775 16.203 l-3.984 0 l0 -4.2513 l11.658 0 l0 4.2513 l-5.0802 0 l1.0963 0.80214 l0 22.968 l-3.6898 0 l0 -23.77 z M67.70050962566845 11.952000000000002 l0 11.872 l4.3048 0 l0 -11.872 l3.6631 0 l0 27.995 l-3.6631 0 l0 -11.898 l-5.4011 0 l1.0963 0.82888 l0 11.07 l-3.6898 0 l0 -27.193 l-0.66845 -0.80214 l4.3583 0 z M81.52401497326204 35.8021 l4.3048 0 l0 -23.797 l3.6898 0 l0 25.348 c0 1.4973 -1.2299 2.6471 -2.6471 2.6471 l-6.3636 0.026738 c-1.4973 0 -2.6471 -1.1765 -2.6471 -2.6738 l0 -24.519 l-0.026738 0 l-0.66845 -0.82888 l4.3583 0 l0 23.797 z M94.2513064171123 28.182000000000002 l1.0963 0.80214 l0 6.8449 l4.3048 0 l0 -7.6471 l-5.4011 0 z M95.3476064171123 17.112 l0 6.8182 l4.3048 0 l0 -7.6471 l-5.4011 0 z M103.3424064171123 14.706 l0 8.6898 c0 1.4973 -1.2299 2.6471 -2.6471 2.6471 c1.4171 0 2.6471 1.2299 2.6471 2.6471 l0 8.7166 c0 1.4973 -1.2299 2.6471 -2.6471 2.6471 l-9.0374 0 l0 -27.193 l-0.66845 -0.80214 l9.7059 0 c1.4171 0 2.6471 1.2299 2.6471 2.6471 z"></path></g>
			</g>
		</svg>
	